<svg width="110" height="49" fill="none" xmlns="http://www.w3.org/2000/svg"><path fill-rule="evenodd" clip-rule="evenodd" d="M53.707 46.986a1.42 1.42 0 001.416-1.424 1.42 1.42 0 00-1.416-1.423 1.42 1.42 0 00-1.417 1.423 1.42 1.42 0 001.417 1.424zm0 1.358a2.775 2.775 0 002.768-2.782 2.775 2.775 0 00-2.768-2.781 2.775 2.775 0 00-2.769 2.781 2.775 2.775 0 002.769 2.782z" fill="#fff"/><path d="M54.517 11.665c-.926 0-1.704-.14-2.332-.421-.629-.292-1.114-.665-1.454-1.118-.33-.465-.506-.956-.528-1.475a.31.31 0 01.096-.226.35.35 0 01.256-.114h.815c.128 0 .224.033.287.097.064.065.107.14.128.227.053.26.181.519.384.778.213.248.506.459.878.632.384.162.874.243 1.47.243.916 0 1.587-.162 2.014-.486.436-.335.655-.778.655-1.329 0-.378-.117-.68-.352-.907-.224-.238-.57-.448-1.038-.632a21.72 21.72 0 00-1.822-.6c-.777-.226-1.422-.475-1.933-.745-.511-.27-.895-.604-1.15-1.004-.246-.4-.368-.907-.368-1.523 0-.583.154-1.102.463-1.555.31-.465.751-.832 1.327-1.102C52.898.135 53.606 0 54.437 0c.66 0 1.236.092 1.726.275.5.173.916.41 1.246.713.33.292.58.61.751.956.17.335.261.664.272.988a.392.392 0 01-.08.227c-.053.065-.138.097-.255.097h-.847a.533.533 0 01-.24-.064c-.075-.044-.133-.125-.176-.243-.064-.443-.309-.816-.735-1.118-.426-.303-.98-.454-1.661-.454-.693 0-1.257.135-1.694.405-.426.27-.64.691-.64 1.264 0 .367.102.675.304.923.203.238.522.448.959.632.437.184 1.007.378 1.71.583.852.238 1.55.492 2.093.762.543.259.942.588 1.198.988.266.389.4.891.4 1.507 0 .68-.176 1.263-.528 1.75-.351.475-.847.842-1.486 1.101-.628.249-1.374.373-2.237.373zm8.824-.162a.4.4 0 01-.272-.097.413.413 0 01-.095-.276V.55a.38.38 0 01.095-.275.367.367 0 01.272-.113h.799c.128 0 .224.032.287.097a.402.402 0 01.112.162l3.388 6.545L71.33.421a.909.909 0 01.112-.162c.064-.065.16-.097.288-.097h.782c.117 0 .208.038.272.113a.345.345 0 01.112.276v10.58a.377.377 0 01-.112.275.369.369 0 01-.272.097h-.782a.4.4 0 01-.272-.097.413.413 0 01-.096-.276V3.16l-2.668 5.28a.589.589 0 01-.192.26.586.586 0 01-.32.081h-.495a.62.62 0 01-.335-.081.814.814 0 01-.192-.26l-2.668-5.28v7.97c0 .108-.038.2-.112.276a.343.343 0 01-.256.097h-.783zm12.331 0a.305.305 0 01-.224-.097.313.313 0 01-.096-.227c0-.054.005-.114.016-.178L79.331.518a.654.654 0 01.175-.259c.075-.065.187-.097.336-.097h1.086c.139 0 .245.032.32.097a.592.592 0 01.192.26L85.386 11a.575.575 0 01.032.178.313.313 0 01-.096.227.305.305 0 01-.223.097h-.815c-.128 0-.224-.033-.288-.097a.688.688 0 01-.112-.179l-.879-2.3h-5.24l-.88 2.3a.375.375 0 01-.11.179c-.065.064-.16.097-.288.097h-.815zm2.556-3.97h4.314l-2.157-5.75-2.157 5.75zm11.768 3.97a.366.366 0 01-.271-.097.413.413 0 01-.096-.276V.55c0-.118.032-.21.096-.275a.336.336 0 01.271-.113h3.899c1.204 0 2.157.286 2.86.859.703.572 1.054 1.42 1.054 2.543 0 .832-.207 1.512-.623 2.042-.405.518-.958.88-1.662 1.085l2.461 4.31a.407.407 0 01.048.178.293.293 0 01-.112.227.305.305 0 01-.224.097h-.766c-.181 0-.315-.049-.4-.146a2.663 2.663 0 01-.224-.292L93.992 6.95h-2.796v4.18c0 .108-.038.2-.112.276a.369.369 0 01-.272.097h-.815zm1.199-5.93h2.636c.799 0 1.395-.167 1.79-.502.394-.346.59-.853.59-1.523 0-.659-.197-1.161-.59-1.507-.384-.345-.98-.518-1.79-.518h-2.636v4.05zm13.566 5.93a.4.4 0 01-.272-.097.411.411 0 01-.095-.276V1.604h-3.068a.4.4 0 01-.272-.097.412.412 0 01-.096-.276v-.68c0-.119.032-.21.096-.276a.368.368 0 01.272-.113h7.701c.117 0 .208.038.272.113a.347.347 0 01.112.276v.68a.38.38 0 01-.112.276.366.366 0 01-.272.097h-3.052v9.526c0 .108-.037.2-.112.276a.365.365 0 01-.271.097h-.831zM51.356 30.166c-.12 0-.214-.032-.28-.097a.405.405 0 01-.099-.275v-10.58c0-.118.033-.21.1-.275a.352.352 0 01.28-.113h4.019c1.24 0 2.223.286 2.948.858.725.573 1.087 1.42 1.087 2.544 0 .832-.214 1.512-.642 2.041-.417.519-.988.88-1.713 1.086l2.537 4.31a.403.403 0 01.049.178.29.29 0 01-.115.226.319.319 0 01-.231.098h-.79c-.187 0-.325-.05-.413-.146a2.659 2.659 0 01-.23-.292l-2.389-4.115h-2.882v4.18a.37.37 0 01-.116.275.382.382 0 01-.28.098h-.84zm1.236-5.93h2.718c.823 0 1.438-.166 1.844-.501.407-.346.61-.854.61-1.523 0-.659-.203-1.161-.61-1.507-.395-.345-1.01-.518-1.844-.518h-2.718v4.05zm10.711 5.93a.319.319 0 01-.23-.097.308.308 0 01-.1-.226c0-.055.006-.114.017-.179l4.085-10.482a.652.652 0 01.181-.259c.077-.065.193-.097.346-.097h1.12c.143 0 .253.032.33.097a.59.59 0 01.198.26l4.068 10.481a.56.56 0 01.033.178.308.308 0 01-.099.227.319.319 0 01-.23.098h-.84c-.132 0-.23-.033-.297-.098a.686.686 0 01-.115-.178l-.906-2.3H65.46l-.906 2.3a.374.374 0 01-.115.178c-.066.065-.165.098-.297.098h-.84zm2.636-3.969h4.447l-2.224-5.751-2.223 5.751zm10.571 3.969c-.121 0-.215-.032-.28-.097a.405.405 0 01-.1-.275v-10.58a.37.37 0 01.1-.275.352.352 0 01.28-.113h3.739c1.131 0 2.043.167 2.734.502.692.335 1.197.832 1.516 1.49.318.649.483 1.448.494 2.398.01.486.016.913.016 1.28s-.005.789-.016 1.264c-.022.993-.192 1.82-.51 2.479-.308.648-.802 1.134-1.483 1.458-.67.313-1.56.47-2.669.47H76.51zm1.235-1.377h2.504c.758 0 1.362-.102 1.812-.307a1.88 1.88 0 00.972-.989c.208-.453.318-1.053.33-1.798.021-.324.032-.605.032-.842v-.73c0-.248-.01-.529-.033-.842-.022-1.048-.274-1.82-.758-2.317-.483-.507-1.295-.761-2.438-.761h-2.42v8.586zm14.878 1.377c-.121 0-.215-.032-.28-.097a.405.405 0 01-.1-.275V19.198c0-.108.034-.194.1-.259a.352.352 0 01.28-.113h.873c.11 0 .197.038.263.113a.322.322 0 01.115.26v10.595a.37.37 0 01-.115.275.36.36 0 01-.263.098h-.873zm12.562.162c-.933 0-1.735-.156-2.405-.47a3.439 3.439 0 01-1.548-1.474c-.362-.67-.566-1.506-.609-2.51a58.992 58.992 0 010-2.739c.043-.993.252-1.82.625-2.479a3.607 3.607 0 011.582-1.49c.681-.335 1.466-.502 2.355-.502.901 0 1.686.167 2.356.502.681.324 1.213.82 1.598 1.49.384.66.593 1.486.626 2.48a29.473 29.473 0 010 2.738c-.033 1.004-.236 1.84-.61 2.51a3.434 3.434 0 01-1.548 1.475c-.67.313-1.477.47-2.422.47zm0-1.377c.846 0 1.532-.248 2.059-.745.539-.497.83-1.301.873-2.414.022-.486.033-.918.033-1.296 0-.389-.011-.82-.033-1.296-.021-.745-.164-1.35-.428-1.814-.252-.465-.593-.805-1.021-1.021-.428-.216-.923-.324-1.483-.324-.538 0-1.021.108-1.449.324-.428.216-.774.556-1.038 1.02-.253.465-.395 1.07-.428 1.815a56.59 56.59 0 00-.017 1.296c0 .378.006.81.017 1.296.044 1.113.335 1.917.873 2.414.538.497 1.219.745 2.042.745z" fill="#fff"/><path d="M96.98 19.858a.46.46 0 01-.066.267.235.235 0 01-.187.094h-7.231a.207.207 0 01-.177-.094.411.411 0 01-.078-.267v-.833a.38.38 0 01.078-.251c.044-.074.103-.11.177-.11h7.23c.074 0 .137.036.189.11a.429.429 0 01.066.251v.833zm0 10.109a.46.46 0 01-.066.267.235.235 0 01-.187.094h-7.231a.206.206 0 01-.177-.094.41.41 0 01-.078-.267v-.832c0-.105.026-.189.078-.252.044-.073.103-.11.177-.11h7.23c.074 0 .137.037.189.11a.429.429 0 01.066.252v.832zM67.707 48.052a.473.473 0 01-.3-.097.388.388 0 01-.107-.275v-9.527h-3.401a.473.473 0 01-.301-.097.388.388 0 01-.106-.275v-.68c0-.12.035-.211.106-.276a.43.43 0 01.301-.114h8.538c.13 0 .23.038.301.114a.33.33 0 01.124.275v.68a.36.36 0 01-.124.276.43.43 0 01-.3.097h-3.384v9.527a.36.36 0 01-.124.275.43.43 0 01-.301.097h-.922zm8.742 0a.43.43 0 01-.301-.097.388.388 0 01-.107-.275V37.1c0-.119.036-.21.107-.275.07-.076.17-.114.3-.114h7.317c.13 0 .23.038.3.114.072.065.107.156.107.275v.616c0 .119-.035.21-.106.275a.43.43 0 01-.301.098h-6.023v3.548h5.633c.13 0 .23.037.301.113.071.065.106.157.106.276v.599c0 .108-.035.2-.106.275a.43.43 0 01-.301.098h-5.633v3.677h6.164c.13 0 .23.033.301.097a.356.356 0 01.107.276v.632a.39.39 0 01-.106.275.43.43 0 01-.302.097H76.45zm16.161.162c-1.086 0-1.99-.183-2.71-.55-.708-.368-1.245-.88-1.612-1.54-.366-.659-.566-1.425-.602-2.3a57.49 57.49 0 010-2.884c.036-.875.236-1.642.602-2.3.367-.66.904-1.172 1.612-1.54.72-.367 1.624-.55 2.71-.55.816 0 1.53.102 2.144.307.614.206 1.122.481 1.523.827.414.345.727.734.94 1.166.212.421.33.859.354 1.312a.254.254 0 01-.107.243.379.379 0 01-.265.098h-.975a.507.507 0 01-.283-.081c-.07-.054-.124-.152-.16-.292-.2-.843-.578-1.42-1.133-1.734-.543-.313-1.228-.47-2.055-.47-.945 0-1.695.249-2.25.746-.555.486-.856 1.269-.903 2.349a34.887 34.887 0 000 2.722c.047 1.08.348 1.868.903 2.365.555.486 1.305.73 2.25.73.827 0 1.512-.157 2.055-.47.555-.314.933-.892 1.133-1.734.036-.14.09-.238.16-.292a.507.507 0 01.283-.08h.975c.106 0 .195.032.265.096a.254.254 0 01.107.243 3.383 3.383 0 01-.355 1.329 3.646 3.646 0 01-.938 1.15c-.402.346-.91.621-1.524.827-.614.205-1.328.307-2.143.307zm8.232-.162a.43.43 0 01-.301-.097.388.388 0 01-.107-.275V37.1c0-.119.036-.21.107-.275a.392.392 0 01.301-.114h.903c.13 0 .231.038.301.114a.329.329 0 01.124.275v4.472h6.094V37.1c0-.119.035-.21.106-.275a.43.43 0 01.301-.114h.904c.13 0 .23.038.301.114a.329.329 0 01.124.275v10.58c0 .108-.041.2-.124.275a.43.43 0 01-.301.097h-.904a.474.474 0 01-.301-.097.387.387 0 01-.106-.275v-4.65h-6.094v4.65c0 .108-.041.2-.124.275-.07.065-.171.097-.301.097h-.903zM38.023 23.96c0 .918.721 1.64 1.64 1.64.917 0 1.638-.722 1.638-1.64a1.65 1.65 0 00-1.311-1.609V14.41a1.65 1.65 0 001.31-1.61c0-.919-.721-1.64-1.639-1.64-.36 0-.688.13-.95.327L32.09 7.582c.033-.099.033-.23.033-.361 0-.92-.721-1.641-1.639-1.641-.426 0-.82.164-1.114.426l-7.08-4.168v-.197C22.29.722 21.567 0 20.65 0c-.917 0-1.638.722-1.638 1.641v.197L2.59 11.488a1.585 1.585 0 00-.951-.329A1.624 1.624 0 000 12.8c0 .92.721 1.641 1.639 1.641a1.7 1.7 0 001.41-.787l5.9 3.577a1.592 1.592 0 00-.099.59 1.624 1.624 0 002.852 1.084l6.589 3.971a2.8 2.8 0 00-.263 1.15 2.702 2.702 0 002.688 2.69 2.7 2.7 0 002.163-1.083l6.097 3.676a1.471 1.471 0 00-.13.657c0 .919.72 1.64 1.638 1.64.525 0 .95-.229 1.278-.623l6.392 3.873a1.86 1.86 0 00-.098.59v.23l-16.225 9.781a1.672 1.672 0 00-.853-.46v-8.5a1.65 1.65 0 001.311-1.608c0-.919-.72-1.641-1.639-1.641-.917 0-1.638.722-1.638 1.641a1.65 1.65 0 001.31 1.608v8.5c-.327.067-.622.23-.851.493l-7.409-4.332c.033-.132.066-.296.066-.427a1.65 1.65 0 00-1.311-1.608v-7.549a1.65 1.65 0 001.311-1.608c0-.92-.721-1.641-1.639-1.641s-1.639.722-1.639 1.64a1.65 1.65 0 001.311 1.609v7.516c-.327.066-.59.23-.82.427l-6.129-3.61c.033-.165.066-.329.066-.493a1.65 1.65 0 00-1.311-1.608v-8.238a1.65 1.65 0 001.31-1.609c0-.918-.72-1.64-1.638-1.64-.918 0-1.639.722-1.639 1.64a1.65 1.65 0 001.311 1.609v8.27A1.65 1.65 0 000 35.448c0 .919.721 1.641 1.639 1.641.492 0 .95-.23 1.246-.59l6.096 3.577c-.065.197-.13.394-.13.623 0 .92.72 1.641 1.638 1.641.525 0 .983-.23 1.278-.623l7.343 4.3a1.536 1.536 0 00-.098.557c0 .92.72 1.641 1.639 1.641.917 0 1.639-.722 1.639-1.64 0-.198-.033-.427-.099-.591l16.094-9.715c.295.459.82.787 1.41.787.918 0 1.639-.722 1.639-1.64 0-.92-.721-1.642-1.64-1.642a1.69 1.69 0 00-1.18.492l-6.457-3.84c.033-.131.066-.295.066-.46 0-.918-.721-1.64-1.639-1.64-.426 0-.852.164-1.114.46l-6.163-3.742c.131-.329.197-.657.197-1.05a2.702 2.702 0 00-2.688-2.692c-.82 0-1.573.394-2.065.985l-6.621-3.972c.065-.164.098-.328.098-.492 0-.92-.721-1.641-1.639-1.641-.459 0-.885.197-1.18.492L3.278 13.03v-.23c0-.295-.066-.59-.23-.82l16.193-9.518c.23.393.623.689 1.082.787v7.713a1.65 1.65 0 00-1.311 1.608c0 .92.72 1.642 1.639 1.642.917 0 1.639-.723 1.639-1.642a1.65 1.65 0 00-1.312-1.608V3.25a1.666 1.666 0 001.082-.787l6.916 4.07c-.065.23-.13.459-.13.689a1.65 1.65 0 001.31 1.608v8.041a1.65 1.65 0 00-1.31 1.608c0 .92.72 1.641 1.638 1.641.918 0 1.639-.722 1.639-1.64a1.65 1.65 0 00-1.311-1.609V8.83c.393-.099.754-.328.983-.624l6.425 3.775c-.131.23-.23.525-.23.82a1.65 1.65 0 001.311 1.608v7.943a1.655 1.655 0 00-1.278 1.608zM10.49 30.621a.693.693 0 01-.688-.689c0-.394.295-.69.688-.69.36 0 .688.296.688.69 0 .394-.327.69-.688.69zm9.473 4.267c0-.361.295-.69.689-.69.36 0 .688.296.688.69 0 .394-.295.69-.688.69-.361-.034-.689-.329-.689-.69zm10.555-5.613c.36 0 .688.296.688.69a.672.672 0 01-.688.689.673.673 0 01-.689-.69c0-.393.328-.689.689-.689zm-9.768-6.793c.852 0 1.54.689 1.54 1.542a1.54 1.54 0 11-3.08 0 1.54 1.54 0 011.54-1.542zM10.522 17.1c.36 0 .688.295.688.69a.672.672 0 01-.688.688.693.693 0 01-.688-.689c0-.394.327-.69.688-.69zm10.817-4.562c0 .36-.295.689-.688.689-.394 0-.656-.328-.656-.69 0-.36.295-.689.688-.689.394 0 .656.296.656.69zm9.866 5.907c0 .362-.295.69-.688.69a.673.673 0 01-.689-.69c0-.393.296-.689.689-.689.393 0 .688.328.688.69z" fill="#fff"/></svg>