<svg width="1920" height="9" fill="none" xmlns="http://www.w3.org/2000/svg"><path d="M0 1l4.5 3.5-4.5 3M5.5 1L10 4.5l-4.5 3M11 1l4.5 3.5-4.5 3M16.5 1L21 4.5l-4.5 3M22 1l4.5 3.5-4.5 3M27.5 1L32 4.5l-4.5 3M33 1l4.5 3.5-4.5 3M38.5 1L43 4.5l-4.5 3M44 1l4.5 3.5-4.5 3M49.5 1L54 4.5l-4.5 3M55 1l4.5 3.5-4.5 3M60.5 1L65 4.5l-4.5 3M66 1l4.5 3.5-4.5 3M71.5 1L76 4.5l-4.5 3M77 1l4.5 3.5-4.5 3M82.5 1L87 4.5l-4.5 3M88 1l4.5 3.5-4.5 3M93.5 1L98 4.5l-4.5 3M99 1l4.5 3.5-4.5 3m5.5-6.5l4.5 3.5-4.5 3M110 1l4.5 3.5-4.5 3m5.5-6.5l4.5 3.5-4.5 3M121 1l4.5 3.5-4.5 3m5.5-6.5l4.5 3.5-4.5 3M132 1l4.5 3.5-4.5 3m5.5-6.5l4.5 3.5-4.5 3M143 1l4.5 3.5-4.5 3m5.5-6.5l4.5 3.5-4.5 3m6-6.5l4.5 3.5-4.5 3m6-6.5l4.5 3.5-4.5 3m6-6.5l4.5 3.5-4.5 3m6-6.5l4.5 3.5-4.5 3m6-6.5l4.5 3.5-4.5 3m6-6.5l4.5 3.5-4.5 3m6-6.5l4.5 3.5-4.5 3m6-6.5l4.5 3.5-4.5 3m6-6.5l4.5 3.5-4.5 3m6-6.5l4.5 3.5-4.5 3m6-6.5l4.5 3.5-4.5 3m6-6.5l4.5 3.5-4.5 3m6-6.5l4.5 3.5-4.5 3m6-6.5l4.5 3.5-4.5 3m6-6.5l4.5 3.5-4.5 3m6-6.5l4.5 3.5-4.5 3m6-6.5l4.5 3.5-4.5 3m6-6.5l4.5 3.5-4.5 3m6-6.5l4.5 3.5-4.5 3m6-6.5l4.5 3.5-4.5 3m6-6.5l4.5 3.5-4.5 3m6-6.5l4.5 3.5-4.5 3m6-6.5l4.5 3.5-4.5 3m6-6.5l4.5 3.5-4.5 3m6-6.5l4.5 3.5-4.5 3m6-6.5l4.5 3.5-4.5 3m6-6.5l4.5 3.5-4.5 3m6-6.5l4.5 3.5-4.5 3m6-6.5l4.5 3.5-4.5 3m6-6.5l4.5 3.5-4.5 3m6-6.5l4.5 3.5-4.5 3m6-6.5l4.5 3.5-4.5 3m6-6.5l4.5 3.5-4.5 3m6-6.5l4.5 3.5-4.5 3m6-6.5l4.5 3.5-4.5 3m6-6.5l4.5 3.5-4.5 3m6-6.5l4.5 3.5-4.5 3m6-6.5l4.5 3.5-4.5 3m6-6.5l4.5 3.5-4.5 3m6-6.5l4.5 3.5-4.5 3m6-6.5l4.5 3.5-4.5 3m6-6.5l4.5 3.5-4.5 3m6-6.5l4.5 3.5-4.5 3m6-6.5l4.5 3.5-4.5 3m6-6.5l4.5 3.5-4.5 3m6-6.5l4.5 3.5-4.5 3m6-6.5l4.5 3.5-4.5 3m6-6.5l4.5 3.5-4.5 3m6-6.5l4.5 3.5-4.5 3m6-6.5l4.5 3.5-4.5 3m6-6.5l4.5 3.5-4.5 3m6-6.5l4.5 3.5-4.5 3m6-6.5l4.5 3.5-4.5 3m6-6.5l4.5 3.5-4.5 3m6-6.5l4.5 3.5-4.5 3m6-6.5l4.5 3.5-4.5 3m6-6.5l4.5 3.5-4.5 3m6-6.5l4.5 3.5-4.5 3m6-6.5l4.5 3.5-4.5 3m6-6.5l4.5 3.5-4.5 3m6-6.5l4.5 3.5-4.5 3m6-6.5l4.5 3.5-4.5 3m6-6.5l4.5 3.5-4.5 3m6-6.5l4.5 3.5-4.5 3m6-6.5l4.5 3.5-4.5 3m6-6.5l4.5 3.5-4.5 3m6-6.5l4.5 3.5-4.5 3m6-6.5l4.5 3.5-4.5 3m6-6.5l4.5 3.5-4.5 3m6-6.5l4.5 3.5-4.5 3m6-6.5l4.5 3.5-4.5 3m6-6.5l4.5 3.5-4.5 3m6-6.5l4.5 3.5-4.5 3m6-6.5l4.5 3.5-4.5 3m6-6.5l4.5 3.5-4.5 3m6-6.5l4.5 3.5-4.5 3m6-6.5l4.5 3.5-4.5 3m6-6.5l4.5 3.5-4.5 3m6-6.5l4.5 3.5-4.5 3m6-6.5l4.5 3.5-4.5 3m6-6.5l4.5 3.5-4.5 3m6-6.5l4.5 3.5-4.5 3m6-6.5l4.5 3.5-4.5 3m6-6.5l4.5 3.5-4.5 3m6-6.5l4.5 3.5-4.5 3m6-6.5l4.5 3.5-4.5 3m6-6.5l4.5 3.5-4.5 3m6-6.5l4.5 3.5-4.5 3m6-6.5l4.5 3.5-4.5 3m6-6.5l4.5 3.5-4.5 3m6-6.5l4.5 3.5-4.5 3m6-6.5l4.5 3.5-4.5 3m6-6.5l4.5 3.5-4.5 3m6-6.5l4.5 3.5-4.5 3m6-6.5l4.5 3.5-4.5 3m6-6.5l4.5 3.5-4.5 3m6-6.5l4.5 3.5-4.5 3m6-6.5l4.5 3.5-4.5 3m6-6.5l4.5 3.5-4.5 3m6-6.5l4.5 3.5-4.5 3m6-6.5l4.5 3.5-4.5 3m6-6.5l4.5 3.5-4.5 3m6-6.5l4.5 3.5-4.5 3m6-6.5l4.5 3.5-4.5 3m6-6.5l4.5 3.5-4.5 3m6-6.5l4.5 3.5-4.5 3m6-6.5l4.5 3.5-4.5 3m6-6.5l4.5 3.5-4.5 3m6-6.5l4.5 3.5-4.5 3m6-6.5l4.5 3.5-4.5 3m6-6.5l4.5 3.5-4.5 3m6-6.5l4.5 3.5-4.5 3m6-6.5l4.5 3.5-4.5 3m6-6.5l4.5 3.5-4.5 3m6-6.5l4.5 3.5-4.5 3m6-6.5l4.5 3.5-4.5 3m6-6.5l4.5 3.5-4.5 3m6-6.5l4.5 3.5-4.5 3m6-6.5l4.5 3.5-4.5 3m6-6.5l4.5 3.5-4.5 3m6-6.5l4.5 3.5-4.5 3m6-6.5l4.5 3.5-4.5 3m6-6.5l4.5 3.5-4.5 3m6-6.5l4.5 3.5-4.5 3m6-6.5l4.5 3.5-4.5 3m6-6.5l4.5 3.5-4.5 3m6-6.5l4.5 3.5-4.5 3m6-6.5l4.5 3.5-4.5 3m6-6.5l4.5 3.5-4.5 3m6-6.5l4.5 3.5-4.5 3m6-6.5l4.5 3.5-4.5 3m6-6.5l4.5 3.5-4.5 3m6-6.5l4.5 3.5-4.5 3m6-6.5l4.5 3.5-4.5 3m6-6.5l4.5 3.5-4.5 3m6-6.5l4.5 3.5-4.5 3m6-6.5l4.5 3.5-4.5 3m6-6.5l4.5 3.5-4.5 3m6-6.5l4.5 3.5-4.5 3m6-6.5l4.5 3.5-4.5 3m6-6.5l4.5 3.5-4.5 3m6-6.5l4.5 3.5-4.5 3m6-6.5l4.5 3.5-4.5 3m6-6.5l4.5 3.5-4.5 3m6-6.5l4.5 3.5-4.5 3m6-6.5l4.5 3.5-4.5 3m6-6.5l4.5 3.5-4.5 3m6-6.5l4.5 3.5-4.5 3m6-6.5l4.5 3.5-4.5 3m6-6.5l4.5 3.5-4.5 3m6-6.5l4.5 3.5-4.5 3m6-6.5l4.5 3.5-4.5 3m6-6.5l4.5 3.5-4.5 3m6-6.5l4.5 3.5-4.5 3m6-6.5l4.5 3.5-4.5 3m6-6.5l4.5 3.5-4.5 3m6-6.5l4.5 3.5-4.5 3m6-6.5l4.5 3.5-4.5 3m6-6.5l4.5 3.5-4.5 3m6-6.5l4.5 3.5-4.5 3m6-6.5l4.5 3.5-4.5 3m6-6.5l4.5 3.5-4.5 3m6-6.5l4.5 3.5-4.5 3m6-6.5l4.5 3.5-4.5 3m6-6.5l4.5 3.5-4.5 3m6-6.5l4.5 3.5-4.5 3m6-6.5l4.5 3.5-4.5 3m6-6.5l4.5 3.5-4.5 3m6-6.5l4.5 3.5-4.5 3m6-6.5l4.5 3.5-4.5 3m6-6.5l4.5 3.5-4.5 3m6-6.5l4.5 3.5-4.5 3m6-6.5l4.5 3.5-4.5 3m6-6.5l4.5 3.5-4.5 3m6-6.5l4.5 3.5-4.5 3m6-6.5l4.5 3.5-4.5 3m6-6.5l4.5 3.5-4.5 3m6-6.5l4.5 3.5-4.5 3m6-6.5l4.5 3.5-4.5 3m6-6.5l4.5 3.5-4.5 3m6-6.5l4.5 3.5-4.5 3m6-6.5l4.5 3.5-4.5 3m6-6.5l4.5 3.5-4.5 3m6-6.5l4.5 3.5-4.5 3m6-6.5l4.5 3.5-4.5 3m6-6.5l4.5 3.5-4.5 3m6-6.5l4.5 3.5-4.5 3m6-6.5l4.5 3.5-4.5 3m6-6.5l4.5 3.5-4.5 3m6-6.5l4.5 3.5-4.5 3m6-6.5l4.5 3.5-4.5 3m6-6.5l4.5 3.5-4.5 3m6-6.5l4.5 3.5-4.5 3m6-6.5l4.5 3.5-4.5 3m6-6.5l4.5 3.5-4.5 3m6-6.5l4.5 3.5-4.5 3m6-6.5l4.5 3.5-4.5 3m6-6.5l4.5 3.5-4.5 3m6-6.5l4.5 3.5-4.5 3m6-6.5l4.5 3.5-4.5 3m6-6.5l4.5 3.5-4.5 3m6-6.5l4.5 3.5-4.5 3m6-6.5l4.5 3.5-4.5 3m6-6.5l4.5 3.5-4.5 3m6-6.5l4.5 3.5-4.5 3m6-6.5l4.5 3.5-4.5 3m6-6.5l4.5 3.5-4.5 3m6-6.5l4.5 3.5-4.5 3m6-6.5l4.5 3.5-4.5 3m6-6.5l4.5 3.5-4.5 3m6-6.5l4.5 3.5-4.5 3m6-6.5l4.5 3.5-4.5 3m6-6.5l4.5 3.5-4.5 3m6-6.5l4.5 3.5-4.5 3m6-6.5l4.5 3.5-4.5 3m6-6.5l4.5 3.5-4.5 3m6-6.5l4.5 3.5-4.5 3m6-6.5l4.5 3.5-4.5 3m6-6.5l4.5 3.5-4.5 3m6-6.5l4.5 3.5-4.5 3m6-6.5l4.5 3.5-4.5 3m6-6.5l4.5 3.5-4.5 3m6-6.5l4.5 3.5-4.5 3m6-6.5l4.5 3.5-4.5 3m6-6.5l4.5 3.5-4.5 3m6-6.5l4.5 3.5-4.5 3m6-6.5l4.5 3.5-4.5 3m6-6.5l4.5 3.5-4.5 3m6-6.5l4.5 3.5-4.5 3m6-6.5l4.5 3.5-4.5 3m6-6.5l4.5 3.5-4.5 3m6-6.5l4.5 3.5-4.5 3m6-6.5l4.5 3.5-4.5 3m6-6.5l4.5 3.5-4.5 3m6-6.5l4.5 3.5-4.5 3m6-6.5l4.5 3.5-4.5 3m6-6.5l4.5 3.5-4.5 3m6-6.5l4.5 3.5-4.5 3m6-6.5l4.5 3.5-4.5 3m6-6.5l4.5 3.5-4.5 3m6-6.5l4.5 3.5-4.5 3m6-6.5l4.5 3.5-4.5 3m6-6.5l4.5 3.5-4.5 3m6-6.5l4.5 3.5-4.5 3m6-6.5l4.5 3.5-4.5 3m6-6.5l4.5 3.5-4.5 3m6-6.5l4.5 3.5-4.5 3m6-6.5l4.5 3.5-4.5 3m6-6.5l4.5 3.5-4.5 3m6-6.5l4.5 3.5-4.5 3m6-6.5l4.5 3.5-4.5 3m6-6.5l4.5 3.5-4.5 3m6-6.5l4.5 3.5-4.5 3m6-6.5l4.5 3.5-4.5 3m6-6.5l4.5 3.5-4.5 3m6-6.5l4.5 3.5-4.5 3m6-6.5l4.5 3.5-4.5 3m6-6.5l4.5 3.5-4.5 3m6-6.5l4.5 3.5-4.5 3m6-6.5l4.5 3.5-4.5 3m6-6.5l4.5 3.5-4.5 3m6-6.5l4.5 3.5-4.5 3m6-6.5l4.5 3.5-4.5 3m6-6.5l4.5 3.5-4.5 3m6-6.5l4.5 3.5-4.5 3m6-6.5l4.5 3.5-4.5 3m6-6.5l4.5 3.5-4.5 3m6-6.5l4.5 3.5-4.5 3m6-6.5l4.5 3.5-4.5 3m6-6.5l4.5 3.5-4.5 3m6-6.5l4.5 3.5-4.5 3m6-6.5l4.5 3.5-4.5 3m6-6.5l4.5 3.5-4.5 3m6-6.5l4.5 3.5-4.5 3m6-6.5l4.5 3.5-4.5 3m6-6.5l4.5 3.5-4.5 3m6-6.5l4.5 3.5-4.5 3m6-6.5l4.5 3.5-4.5 3m6-6.5l4.5 3.5-4.5 3m6-6.5l4.5 3.5-4.5 3m6-6.5l4.5 3.5-4.5 3m6-6.5l4.5 3.5-4.5 3m6-6.5l4.5 3.5-4.5 3m6-6.5l4.5 3.5-4.5 3m6-6.5l4.5 3.5-4.5 3m6-6.5l4.5 3.5-4.5 3m6-6.5l4.5 3.5-4.5 3m6-6.5l4.5 3.5-4.5 3m6-6.5l4.5 3.5-4.5 3m6-6.5l4.5 3.5-4.5 3m6-6.5l4.5 3.5-4.5 3m6-6.5l4.5 3.5-4.5 3m6-6.5l4.5 3.5-4.5 3m6-6.5l4.5 3.5-4.5 3m6-6.5l4.5 3.5-4.5 3" stroke="#FC3" stroke-width="2" stroke-linecap="round"/></svg>